#!OML:ASF F:\VICON\USERDATA\INSTALL\rory3\rory3.ASF
:FULLY-SPECIFIED
:DEGREES
2012
root 0.231649 16.2574 0.0247531 -10.4003 4.28128 -1.22004
lowerback 2.51154 0.6165 -1.29748
upperback 4.54988 0.789659 1.40192
thorax 3.23445 0.328583 2.17296
lowerneck -0.520197 -6.0856 -16.6871
upperneck 22.3673 -11.5933 20.615
head 9.17956 -5.35289 9.21814
rclavicle -9.63397e-015 8.05078e-015
rhumerus 79.5984 -61.6969 -99.3063
rradius 40.7833
rwrist -26.4011
rhand -55.4201 -14.62
rfingers 7.12502
rthumb -27.7819 -42.5868
lclavicle -9.63397e-015 8.05078e-015
lhumerus 98.8171 48.4528 125.049
lradius 24.1217
lwrist 44.2118
lhand -30.7894 38.1634
lfingers 7.12502
lthumb -4.07973 68.1041
rfemur -1.62866 -2.95558 18.9924
rtibia 42.5472
rfoot -29.4824 -9.68545
rtoes -21.1829
lfemur -4.94786 -5.60817 -18.083
ltibia 45.3614
lfoot -27.6531 -1.74968
ltoes -15.9225
2013
root 0.232983 16.2518 0.00827956 -10.3172 4.24181 -1.21935
lowerback 2.75147 0.642428 -1.16895
upperback 4.69961 0.823156 1.39012
thorax 3.25507 0.348634 2.08716
lowerneck -0.20625 -6.14981 -16.7644
upperneck 21.9072 -11.6669 20.7105
head 8.98716 -5.41121 9.24289
rclavicle -1.36773e-014 -4.96962e-015
rhumerus 79.4691 -62.0904 -99.2658
rradius 40.7634
rwrist -26.674
rhand -55.3796 -14.9548
rfingers 7.12502
rthumb -27.7432 -42.9278
lclavicle -1.36773e-014 -4.96962e-015
lhumerus 99.3263 48.6523 125.701
lradius 23.9689
lwrist 43.9263
lhand -32.7364 35.9053
lfingers 7.12502
lthumb -5.95973 65.8015
rfemur -1.96889 -3.01443 18.9667
rtibia 42.8838
rfoot -29.5698 -9.63698
rtoes -21.2981
lfemur -5.22977 -5.53424 -18.0579
ltibia 45.6122
lfoot -27.6644 -1.9101
ltoes -15.3187
2014
root 0.233963 16.2434 -0.00883568 -10.2476 4.23901 -1.25752
lowerback 3.01183 0.622399 -1.0792
upperback 4.87153 0.793726 1.44129
thorax 3.28917 0.334546 2.0881
lowerneck -0.0790178 -6.19043 -17.0087
upperneck 21.5541 -11.7068 20.8909
head 8.87802 -5.45044 9.33945
rclavicle 1.33838e-014 1.25234e-014
rhumerus 79.4939 -62.3479 -99.3325
rradius 40.7095
rwrist -26.9523
rhand -55.5164 -15.0693
rfingers 7.12502
rthumb -27.874 -43.0212
lclavicle 1.33838e-014 1.25234e-014
lhumerus 99.9811 48.9549 126.513
lradius 23.8474
lwrist 43.3728
lhand -33.8382 34.8362
lfingers 7.12502
lthumb -7.02335 64.6996
rfemur -2.30249 -3.10275 18.9809
rtibia 43.2241
rfoot -29.6699 -9.55204
rtoes -21.1082
lfemur -5.48985 -5.41232 -17.9804
ltibia 45.8622
lfoot -27.7042 -1.77837
ltoes -16.3532
2015
root 0.234683 16.2318 -0.0262673 -10.165 4.30949 -1.09707
lowerback 3.29554 0.585486 -1.24863
upperback 5.0176 0.740428 1.461
thorax 3.28233 0.300739 2.20183
lowerneck 0.109419 -6.21534 -17.2097
upperneck 21.1627 -11.724 21.0472
head 8.73505 -5.48084 9.42035
rclavicle -1.04983e-015 9.93923e-015
rhumerus 79.5119 -62.5867 -99.3863
rradius 40.5741
rwrist -27.2232
rhand -54.7614 -16.2752
rfingers 7.12502
rthumb -27.1519 -44.3419
lclavicle -1.04983e-015 9.93923e-015
lhumerus 100.419 49.4067 127.092
lradius 23.8065
lwrist 43.1237
lhand -34.1054 34.8849
lfingers 7.12502
lthumb -7.28129 64.7396
rfemur -2.63296 -3.22679 18.7589
rtibia 43.5938
rfoot -29.747 -9.56622
rtoes -21.5208
lfemur -5.76689 -5.40971 -18.1535
ltibia 46.0787
lfoot -27.7392 -1.61436
ltoes -17.1472
2016
root 0.234423 16.2224 -0.0453615 -10.0778 4.34178 -0.963417
lowerback 3.58961 0.560962 -1.37448
upperback 5.18846 0.703116 1.48628
thorax 3.29564 0.275752 2.29722
lowerneck 0.239666 -6.27046 -17.3685
upperneck 20.7602 -11.7636 21.136
head 8.59904 -5.51928 9.46122
rclavicle 3.40419e-015 1.49089e-014
rhumerus 79.531 -62.8098 -99.4027
rradius 40.4142
rwrist -27.5857
rhand -53.5077 -17.9031
rfingers 7.12502
rthumb -25.952 -46.1514
lclavicle 3.40419e-015 1.49089e-014
lhumerus 100.942 49.8335 127.697
lradius 23.7206
lwrist 42.9807
lhand -33.9328 35.066
lfingers 7.12502
lthumb -7.11471 64.9265
rfemur -2.99261 -3.26083 18.6005
rtibia 43.9819
rfoot -29.8513 -9.5151
rtoes -21.3482
lfemur -6.06483 -5.3936 -18.2775
ltibia 46.2598
lfoot -27.7697 -1.79506
ltoes -16.8617
2017
root 0.233667 16.2152 -0.0653404 -9.9297 4.40627 -0.733009
lowerback 3.87249 0.579347 -1.53958
upperback 5.32791 0.724601 1.40998
thorax 3.28052 0.281324 2.30914
lowerneck 0.446294 -6.34366 -17.3862
upperneck 20.3187 -11.8565 21.2949
head 8.44371 -5.57271 9.4987
rclavicle 6.26172e-015 1.80894e-014
rhumerus 79.4194 -63.2414 -99.3459
rradius 40.3105
rwrist -28.0143
rhand -53.1718 -18.2031
rfingers 7.12502
rthumb -25.6303 -46.4981
lclavicle 6.26172e-015 1.80894e-014
lhumerus 101.365 50.0752 128.219
lradius 23.5882
lwrist 42.7237
lhand -33.9826 35.0947
lfingers 7.12502
lthumb -7.16278 64.9534
rfemur -3.41225 -3.34077 18.3251
rtibia 44.371
rfoot -29.9754 -9.48018
rtoes -21.4289
lfemur -6.38774 -5.33391 -18.501
ltibia 46.4049
lfoot -27.7039 -2.04118
ltoes -16.2638
2018
root 0.234317 16.2107 -0.0829604 -9.75854 4.39107 -0.509213
lowerback 4.09241 0.61836 -1.67345
upperback 5.50545 0.773863 1.34055
thorax 3.33942 0.300472 2.31126
lowerneck 0.520445 -6.441 -17.4112
upperneck 19.9419 -11.9698 21.4276
head 8.34041 -5.62987 9.52473
rclavicle -1.36664e-016 7.15625e-015
rhumerus 79.5283 -63.631 -99.4861
rradius 40.1992
rwrist -28.3618
rhand -53.3265 -18.1118
rfingers 7.12502
rthumb -25.7785 -46.3854
lclavicle -1.36664e-016 7.15625e-015
lhumerus 101.803 50.3553 128.732
lradius 23.4774
lwrist 42.4739
lhand -33.7257 35.3116
lfingers 7.12502
lthumb -6.9148 65.1786
rfemur -3.85291 -3.40205 18.0524
rtibia 44.7372
rfoot -30.0188 -9.44289
rtoes -21.5188
lfemur -6.67945 -5.247 -18.7346
ltibia 46.5365
lfoot -27.5138 -2.15335
ltoes -15.6618
2019
root 0.235591 16.2055 -0.100747 -9.64069 4.41077 -0.33515
lowerback 4.41956 0.612239 -1.78992
upperback 5.65382 0.760039 1.3206
thorax 3.311 0.288785 2.35389
lowerneck 0.569738 -6.50189 -17.5558
upperneck 19.6549 -12.0355 21.563
head 8.26959 -5.67109 9.58409
rclavicle -9.08197e-015 6.55989e-015
rhumerus 79.6781 -63.8988 -99.7132
rradius 40.1056
rwrist -28.6281
rhand -53.6152 -17.322
rfingers 7.12502
rthumb -26.0549 -45.5552
lclavicle -9.08197e-015 6.55989e-015
lhumerus 102.12 50.8273 129.107
lradius 23.4523
lwrist 42.399
lhand -33.2587 35.8078
lfingers 7.12502
lthumb -6.46396 65.6892
rfemur -4.22056 -3.484 17.8208
rtibia 45.1062
rfoot -30.1226 -9.35375
rtoes -21.4205
lfemur -6.94734 -5.26322 -18.946
ltibia 46.6993
lfoot -27.4251 -2.09876
ltoes -15.5239
2020
root 0.236456 16.1977 -0.119743 -9.49941 4.45896 -0.159535
lowerback 4.65986 0.603555 -1.9262
upperback 5.82414 0.742823 1.31225
thorax 3.35446 0.273164 2.42107
lowerneck 0.665322 -6.56399 -17.687
upperneck 19.2457 -12.0891 21.697
head 8.14618 -5.71004 9.63652
rclavicle -1.86361e-014 -1.90833e-014
rhumerus 79.9358 -64.193 -100.018
rradius 39.9782
rwrist -28.8427
rhand -53.8428 -16.9582
rfingers 7.12502
rthumb -26.2729 -45.1591
lclavicle -1.86361e-014 -1.90833e-014
lhumerus 102.377 51.2691 129.465
lradius 23.5221
lwrist 42.5217
lhand -33.2594 35.6775
lfingers 7.12502
lthumb -6.4646 65.5589
rfemur -4.62163 -3.58353 17.5882
rtibia 45.4949
rfoot -30.2112 -9.2852
rtoes -21.6727
lfemur -7.28648 -5.27714 -19.1417
ltibia 46.9065
lfoot -27.4112 -2.05277
ltoes -15.4627
2021
root 0.237933 16.1842 -0.144655 -9.32181 4.58337 -0.00751134
lowerback 4.88538 0.576598 -2.03295
upperback 6.01584 0.701762 1.30676
thorax 3.43058 0.245849 2.47557
lowerneck 0.76117 -6.63168 -17.7599
upperneck 18.7797 -12.1408 21.8181
head 7.9998 -5.74536 9.67038
rclavicle 2.5345e-015 1.03368e-014
rhumerus 80.6251 -64.472 -100.766
rradius 39.8339
rwrist -28.8366
rhand -53.6015 -18.0287
rfingers 7.12502
rthumb -26.0418 -46.2638
lclavicle 2.5345e-015 1.03368e-014
lhumerus 102.788 51.6028 130.009
lradius 23.6419
lwrist 42.5081
lhand -33.5411 35.3198
lfingers 7.12502
lthumb -6.73659 65.1927
rfemur -5.10497 -3.72572 17.3788
rtibia 45.9113
rfoot -30.2941 -9.25024
rtoes -21.6808
lfemur -7.7415 -5.28892 -19.3017
ltibia 47.1715
lfoot -27.3378 -2.12001
ltoes -15.1558
2022
root 0.238026 16.1708 -0.168507 -9.1364 4.65892 0.169685
lowerback 5.09209 0.5099 -2.25244
upperback 6.23417 0.603555 1.3585
thorax 3.54833 0.182771 2.65453
lowerneck 0.786824 -6.67302 -17.9505
upperneck 18.3729 -12.1356 21.8711
head 7.87742 -5.76087 9.70648
rclavicle 5.19325e-015 -1.19271e-014
rhumerus 81.4383 -64.4773 -101.604
rradius 39.6253
rwrist -28.8015
rhand -53.2358 -19.1601
rfingers 7.12502
rthumb -25.6916 -47.4463
lclavicle 5.19325e-015 -1.19271e-014
lhumerus 103.242 52.1842 130.493
lradius 23.7464
lwrist 42.6162
lhand -33.5275 35.5565
lfingers 7.12502
lthumb -6.72348 65.4298
rfemur -5.60158 -3.80938 17.1644
rtibia 46.3356
rfoot -30.4124 -9.17265
rtoes -21.5053
lfemur -8.18215 -5.23081 -19.4749
ltibia 47.4618
lfoot -27.3284 -2.06793
ltoes -15.5253
2023
root 0.236976 16.1649 -0.191712 -8.96301 4.66896 0.151045
lowerback 5.38043 0.460471 -2.25076
upperback 6.40865 0.531527 1.41368
thorax 3.57457 0.143165 2.7114
lowerneck 0.811573 -6.72311 -18.0448
upperneck 17.9887 -12.157 21.9503
head 7.76469 -5.78056 9.73374
rclavicle -7.70291e-016 -1.07344e-014
rhumerus 81.9265 -64.5862 -102.153
rradius 39.4553
rwrist -28.8545
rhand -53.0273 -19.5795
rfingers 7.12502
rthumb -25.4919 -47.8944
lclavicle -7.70291e-016 -1.07344e-014
lhumerus 102.895 52.9602 129.943
lradius 23.807
lwrist 43.1694
lhand -33.5521 35.7818
lfingers 7.12502
lthumb -6.74722 65.6543
rfemur -6.10981 -3.75543 17.229
rtibia 46.7343
rfoot -30.4801 -9.20978
rtoes -21.6958
lfemur -8.61993 -5.1217 -19.3936
ltibia 47.75
lfoot -27.2777 -2.2999
ltoes -15.1366
2024
root 0.236898 16.1612 -0.21387 -8.82381 4.69313 0.159047
lowerback 5.77389 0.414851 -2.22813
upperback 6.50478 0.46409 1.42826
thorax 3.46016 0.110633 2.71329
lowerneck 1.01911 -6.71619 -18.08
upperneck 17.5546 -12.123 22.0621
head 7.58656 -5.77983 9.77359
rclavicle 1.07841e-014 1.47101e-014
rhumerus 81.9604 -64.8219 -102.33
rradius 39.2875
rwrist -28.8551
rhand -52.9575 -19.3811
rfingers 7.12502
rthumb -25.425 -47.7055
lclavicle 1.07841e-014 1.47101e-014
lhumerus 102.028 53.9069 128.858
lradius 23.9322
lwrist 43.765
lhand -33.8371 35.4769
lfingers 7.12502
lthumb -7.0223 65.3405
rfemur -6.54788 -3.71045 17.2467
rtibia 47.0978
rfoot -30.5561 -9.13712
rtoes -21.3315
lfemur -9.01339 -5.01156 -19.3575
ltibia 48.0145
lfoot -27.252 -2.44197
ltoes -14.8858
2025
root 0.237497 16.1549 -0.236696 -8.61724 4.71015 0.231422
lowerback 6.06682 0.395542 -2.21127
upperback 6.63949 0.434742 1.39939
thorax 3.44038 0.0962242 2.67378
lowerneck 1.14006 -6.74837 -18.0614
upperneck 17.1399 -12.135 22.1626
head 7.43876 -5.7928 9.79223
rclavicle -4.57205e-015 1.59028e-015
rhumerus 81.8982 -65.1245 -102.414
rradius 39.1768
rwrist -28.85
rhand -52.9478 -19.7159
rfingers 7.12502
rthumb -25.4158 -48.0416
lclavicle -4.57205e-015 1.59028e-015
lhumerus 101.373 54.654 128.078
lradius 24.0919
lwrist 44.0447
lhand -34.1427 35.0534
lfingers 7.12502
lthumb -7.31736 64.9069
rfemur -7.04178 -3.82354 17.1409
rtibia 47.4299
rfoot -30.5817 -9.07968
rtoes -21.4152
lfemur -9.47481 -4.9277 -19.4017
ltibia 48.2709
lfoot -27.239 -2.40396
ltoes -15.2813
2026
root 0.236722 16.1485 -0.260683 -8.37126 4.65836 0.280667
lowerback 6.2906 0.370259 -2.26365
upperback 6.81588 0.394433 1.45496
thorax 3.50379 0.0695247 2.76215
lowerneck 1.09379 -6.80663 -18.1537
upperneck 16.7698 -12.1504 22.1911
head 7.34149 -5.80762 9.79904
rclavicle 1.97791e-014 1.78906e-014
rhumerus 81.7508 -65.2763 -102.338
rradius 39.0951
rwrist -28.797
rhand -52.8997 -20.4327
rfingers 7.12502
rthumb -25.3697 -48.765
lclavicle 1.97791e-014 1.78906e-014
lhumerus 101.54 55.3003 128.249
lradius 24.1996
lwrist 43.7013
lhand -34.1176 35
lfingers 7.12502
lthumb -7.29304 64.8543
rfemur -7.60281 -3.85783 17.0927
rtibia 47.7622
rfoot -30.617 -8.98216
rtoes -21.1803
lfemur -9.98436 -4.81542 -19.4069
ltibia 48.5324
lfoot -27.2627 -2.28243
ltoes -16.1235
